<svg xmlns="http://www.w3.org/2000/svg" width="23" height="32" viewBox="0 0 23 32">
    <path fill="#253D17" fill-rule="evenodd" d="M11.303 32l.023-.011c.024-.037.06-.08.11-.128l1.535-2.157c1.512-2.121 2.621-3.73 3.328-4.827 2.438-3.73 4.18-7.24 5.229-10.531.61-1.902.72-3.815.33-5.741-.318-1.56-.964-2.986-1.939-4.278-.975-1.292-2.17-2.322-3.583-3.09C14.922.469 13.422.06 11.838.012c-3.56-.147-6.472 1.072-8.74 3.656C.71 6.35-.131 9.482.576 13.066c.171.853.44 1.767.805 2.742.268.732.646 1.61 1.133 2.633 1.536 3.194 3.535 6.521 5.997 9.983.561.829 1.231 1.755 2.012 2.779.195.268.371.475.53.621.158.147.25.202.274.165l-.023.011zm-.044-15.819l-.372-.007c-.902-.024-1.743-.299-2.523-.823s-1.396-1.194-1.846-2.01c-.451-.817-.653-1.677-.604-2.579.049-1.048.33-1.974.841-2.779.512-.804 1.2-1.42 2.066-1.846.866-.427 1.81-.616 2.834-.567.902.049 1.737.335 2.505.86.768.523 1.365 1.194 1.792 2.01.426.817.627 1.676.603 2.578-.049 1.024-.33 1.938-.841 2.743-.512.804-1.195 1.42-2.048 1.846-.853.427-1.78.616-2.779.567l.372.007z"/>
</svg>
