<svg xmlns="http://www.w3.org/2000/svg" width="24" height="24" viewBox="0 0 24 24">
    <path fill="#253D17" fill-rule="evenodd" d="M22.032 24c.128 0 .232-.04.312-.122l1.536-1.556c.08-.08.12-.186.12-.316s-.04-.235-.12-.316l-4.68-4.717c-.08-.098-.124-.211-.132-.34-.008-.13.02-.252.084-.366 1.104-1.734 1.656-3.639 1.656-5.714 0-1.913-.472-3.688-1.416-5.325-.928-1.589-2.176-2.853-3.744-3.793C14.048.478 12.304 0 10.416 0 8.528 0 6.776.478 5.16 1.435c-1.568.94-2.816 2.204-3.744 3.793C.472 6.865 0 8.64 0 10.553c0 1.913.472 3.688 1.416 5.325.928 1.59 2.176 2.854 3.744 3.794 1.616.956 3.368 1.434 5.256 1.434 1.088 0 2.152-.17 3.192-.51 1.008-.34 1.944-.819 2.808-1.435.096-.081.212-.117.348-.11.136.009.244.061.324.159l3.792 3.842c.016.016.08.073.192.17l.216.194.432.462c.08.081.184.122.312.122zm-11.616-5.374c-1.44 0-2.776-.365-4.008-1.094-1.216-.713-2.176-1.686-2.88-2.918-.72-1.248-1.08-2.602-1.08-4.06 0-1.46.36-2.813 1.08-4.062.704-1.232 1.664-2.204 2.88-2.918C7.64 2.845 8.976 2.48 10.416 2.48s2.776.365 4.008 1.094c1.2.714 2.152 1.686 2.856 2.918.72 1.249 1.08 2.602 1.08 4.061 0 .908-.144 1.78-.432 2.614-.288.835-.696 1.601-1.224 2.298-.336.454-.72.867-1.152 1.24-.704.616-1.496 1.09-2.376 1.423-.88.332-1.8.498-2.76.498z"/>
</svg>
