<svg xmlns="http://www.w3.org/2000/svg" width="35" height="50" viewBox="0 0 35 50">
    <path fill="#8B3706" fill-rule="evenodd" d="M17.474 50l.035-.017c.038-.057.096-.124.172-.2l2.4-3.371c2.361-3.314 4.094-5.828 5.199-7.542 3.809-5.828 6.532-11.313 8.17-16.455.952-2.97 1.124-5.96.514-8.97-.495-2.438-1.504-4.666-3.028-6.685-1.524-2.018-3.39-3.628-5.6-4.828C23.129.732 20.787.095 18.31.018 12.75-.21 8.196 1.694 4.654 5.732.921 9.922-.393 14.816.712 20.416c.266 1.333.685 2.761 1.257 4.285.419 1.142 1.009 2.514 1.77 4.113 2.4 4.99 5.524 10.19 9.371 15.598.876 1.295 1.924 2.743 3.142 4.342.305.42.581.743.829.972.247.228.39.314.428.257l-.035.017zm-.07-24.717l-.58-.011c-1.41-.038-2.724-.467-3.943-1.286-1.218-.818-2.18-1.866-2.885-3.142-.705-1.276-1.019-2.619-.943-4.028.077-1.638.515-3.085 1.314-4.342.8-1.257 1.876-2.219 3.229-2.886 1.352-.666 2.828-.961 4.428-.885 1.409.076 2.713.524 3.913 1.343 1.2.818 2.133 1.866 2.8 3.142.666 1.276.98 2.619.943 4.028-.077 1.6-.515 3.028-1.314 4.285-.8 1.257-1.867 2.219-3.2 2.885-1.333.667-2.78.962-4.342.886l.58.011z"/>
</svg>
